HIERARCHY
ROOT Hips
{
	OFFSET 0.000000 0.000000 0.000000
	CHANNELS 6 Xposition Yposition Zposition Zrotation Yrotation Xrotation 
	JOINT LHipJoint
	{
		OFFSET 0.000000 0.000000 0.000000
		CHANNELS 3 Zrotation Yrotation Xrotation
		JOINT LeftUpLeg
		{
			OFFSET 1.363060 -1.794630 0.839290
			CHANNELS 3 Zrotation Yrotation Xrotation
			JOINT LeftLeg
			{
				OFFSET 2.448110 -6.726130 0.000000
				CHANNELS 3 Zrotation Yrotation Xrotation
				JOINT LeftFoot
				{
					OFFSET 2.562200 -7.039590 0.000000
					CHANNELS 3 Zrotation Yrotation Xrotation
					JOINT LeftToeBase
					{
						OFFSET 0.157640 -0.433110 2.322550
						CHANNELS 3 Zrotation Yrotation Xrotation
						End Site
						{
							OFFSET 0.000000 0.000000 0.000000
						}
					}
				}
			}
		}
	}
	JOINT RHipJoint
	{
		OFFSET 0.000000 0.000000 0.000000
		CHANNELS 3 Zrotation Yrotation Xrotation
		JOINT RightUpLeg
		{
			OFFSET -1.305520 -1.794630 0.839290
			CHANNELS 3 Zrotation Yrotation Xrotation
			JOINT RightLeg
			{
				OFFSET -2.542530 -6.985550 0.000000
				CHANNELS 3 Zrotation Yrotation Xrotation
				JOINT RightFoot
				{
					OFFSET -2.568260 -7.056230 0.000000
					CHANNELS 3 Zrotation Yrotation Xrotation
					JOINT RightToeBase
					{
						OFFSET -0.164730 -0.452590 2.363150
						CHANNELS 3 Zrotation Yrotation Xrotation
						End Site
						{
							OFFSET 0.000000 0.000000 0.000000
						}
					}
				}
			}
		}
	}
	JOINT LowerBack
	{
		OFFSET 0.000000 0.000000 0.000000
		CHANNELS 3 Zrotation Yrotation Xrotation
		JOINT Spine
		{
			OFFSET 0.028270 2.035590 -0.193380
			CHANNELS 3 Zrotation Yrotation Xrotation
			JOINT Spine1
			{
				OFFSET 0.056720 2.048850 -0.042750
				CHANNELS 3 Zrotation Yrotation Xrotation
				JOINT Neck
				{
					OFFSET 0.000000 0.000000 0.000000
					CHANNELS 3 Zrotation Yrotation Xrotation
					JOINT Neck1
					{
						OFFSET -0.054170 1.746240 0.172020
						CHANNELS 3 Zrotation Yrotation Xrotation
						JOINT Head
						{
							OFFSET 0.104070 1.761360 -0.123970
							CHANNELS 3 Zrotation Yrotation Xrotation
							End Site
							{
								OFFSET 0.000000 0.000000 0.000000
							}
						}
					}
				}
				JOINT LeftShoulder
				{
					OFFSET 0.000000 0.000000 0.000000
					CHANNELS 3 Zrotation Yrotation Xrotation
					JOINT LeftArm
					{
						OFFSET 3.362410 1.200890 -0.311210
						CHANNELS 3 Zrotation Yrotation Xrotation
						JOINT LeftForeArm
						{
							OFFSET 4.983000 -0.000000 -0.000000
							CHANNELS 3 Zrotation Yrotation Xrotation
							JOINT LeftHand
							{
								OFFSET 3.483560 -0.000000 -0.000000
								CHANNELS 3 Zrotation Yrotation Xrotation
								JOINT LeftFingerBase
								{
									OFFSET 0.000000 0.000000 0.000000
									CHANNELS 3 Zrotation Yrotation Xrotation
									JOINT LeftHandIndex1
									{
										OFFSET 0.715260 -0.000000 -0.000000
										CHANNELS 3 Zrotation Yrotation Xrotation
										End Site
										{
											OFFSET 0.000000 0.000000 0.000000
										}
									}
								}
								JOINT LThumb
								{
									OFFSET 0.000000 0.000000 0.000000
									CHANNELS 3 Zrotation Yrotation Xrotation
									End Site
									{
										OFFSET 0.000000 0.000000 0.000000
									}
								}
							}
						}
					}
				}
				JOINT RightShoulder
				{
					OFFSET 0.000000 0.000000 0.000000
					CHANNELS 3 Zrotation Yrotation Xrotation
					JOINT RightArm
					{
						OFFSET -3.136600 1.374050 -0.404650
						CHANNELS 3 Zrotation Yrotation Xrotation
						JOINT RightForeArm
						{
							OFFSET -5.241900 -0.000000 -0.000000
							CHANNELS 3 Zrotation Yrotation Xrotation
							JOINT RightHand
							{
								OFFSET -3.444170 -0.000000 -0.000000
								CHANNELS 3 Zrotation Yrotation Xrotation
								JOINT RightFingerBase
								{
									OFFSET 0.000000 0.000000 0.000000
									CHANNELS 3 Zrotation Yrotation Xrotation
									JOINT RightHandIndex1
									{
										OFFSET -0.622530 -0.000000 -0.000000
										CHANNELS 3 Zrotation Yrotation Xrotation
										End Site
										{
											OFFSET 0.000000 0.000000 0.000000
										}
									}
								}
								JOINT RThumb
								{
									OFFSET 0.000000 0.000000 0.000000
									CHANNELS 3 Zrotation Yrotation Xrotation
									End Site
									{
										OFFSET 0.000000 0.000000 0.000000
									}
								}
							}
						}
					}
				}
			}
		}
	}
}
MOTION
Frames: 12
Frame Time: 0.008333
-5.805064 16.057850 10.008145 175.202046 47.862131 178.367478 -2.415722 0.256783 1.024747 -12.160046 -9.183029 7.673695 2.437423 11.319023 32.324675 3.177579 -3.043675 -28.674096 3.618100 -11.634100 -34.449700 2.864145 0.580038 -0.082102 5.450079 -13.767884 -48.976205 -6.595521 -14.868136 47.904947 5.120917 -30.273021 -12.509294 -4.442500 -12.727100 38.355300 -10.434012 -0.175792 15.984637 -5.539276 -2.016338 1.369981 5.417939 -0.817626 -8.602489 -10.109555 -7.573858 -9.287324 16.891817 -9.723003 5.821764 4.462300 -4.237800 5.253300 2.567742 5.463655 -0.019043 -93.930575 6.122411 -27.151766 11.201180 -25.902445 -3.163990 -0.402462 0.374745 7.860358 11.903328 -10.470736 -2.344700 -7.125000 0.000000 0.000000 -10.374500 19.050900 6.527400 0.327327 -5.741125 -2.880175 50.820582 -4.175845 -7.295697 -119.654285 58.781356 -83.692457 1.140794 -0.620402 -0.798244 -27.131324 -43.118264 19.749200 7.125000 0.000000 0.000000 15.784000 -75.012600 -11.228800 
-5.910903 16.129436 10.069703 176.496242 47.002843 179.143949 -2.379363 0.248200 1.013305 -10.790636 -9.308120 6.384031 2.728557 11.650171 33.423472 3.419463 -4.500960 -28.378580 3.417400 -11.341900 -33.441700 2.761503 0.574539 -0.092964 6.141456 -14.004138 -47.581126 -6.010985 -14.381604 45.610333 5.221869 -30.807752 -12.570164 -4.521600 -12.823900 38.712700 -9.411346 0.037549 16.727746 -5.259310 -1.584758 1.781306 4.848850 -0.638515 -8.665690 -10.481593 -7.809027 -8.824944 17.097147 -9.982081 5.226403 4.528200 -4.419500 5.082000 2.555557 5.522429 -0.102159 -93.296835 3.510627 -24.275461 12.059894 -27.205559 -3.504951 -0.428030 0.442911 7.885054 10.758140 -10.242995 -2.096600 -7.125000 0.000000 0.000000 -11.159500 19.270400 6.984200 0.262588 -5.763216 -2.781604 54.944599 -7.025288 -4.296011 -119.671481 58.711728 -83.637054 1.179872 -0.663741 1.416311 -27.314106 -42.682271 19.772800 7.125000 0.000000 0.000000 14.562800 -74.679900 -10.248600 
-5.983779 16.217503 10.110013 178.164385 46.636448 -179.790125 -2.303465 0.306108 1.082332 -9.711284 -9.502963 7.191449 2.349360 11.083872 31.554483 3.229070 -4.270339 -27.460791 3.243800 -11.079700 -32.549100 2.595859 0.550638 -0.137531 7.431904 -14.030732 -46.045074 -5.446481 -13.863322 43.247496 5.196150 -30.906958 -12.421719 -4.602200 -12.921300 39.074600 -8.348832 0.267708 16.926721 -4.759918 -1.047628 2.172619 4.408762 -0.430659 -8.457081 -10.799318 -8.020403 -8.346750 17.098115 -10.236009 4.876953 4.539400 -4.594500 4.964500 2.503449 5.547677 -0.175190 -93.170609 1.884621 -20.035707 13.862196 -29.760248 -4.261071 -0.423024 0.544590 5.164702 10.686358 -9.712431 -2.002100 -7.125000 0.000000 0.000000 -11.237800 19.676800 6.931100 0.216337 -5.758325 -2.699454 58.369261 -9.091439 -1.001747 -117.460108 59.259764 -81.539687 1.240710 -0.744995 3.631594 -25.483537 -41.782735 18.154100 7.125000 0.000000 0.000000 15.611900 -73.220700 -10.508300 
-6.029649 16.310534 10.147444 179.615395 46.379856 -178.770171 -2.224136 0.361324 1.144198 -8.756403 -9.635322 7.851480 2.007890 10.550032 29.837793 3.010241 -3.765061 -26.676381 3.195400 -11.004800 -32.296000 2.434583 0.529884 -0.181766 8.777738 -14.196161 -44.715127 -4.920475 -13.320734 40.919339 5.135640 -30.918153 -11.561598 -4.641300 -12.968000 39.248900 -7.735477 0.370436 16.877691 -4.146580 -0.741261 2.416558 4.384574 -0.313967 -8.206795 -10.926901 -8.043887 -7.967429 16.839745 -10.278140 4.853359 4.483000 -4.650300 4.903500 2.419768 5.546834 -0.234436 -93.335613 1.297707 -15.415339 16.567700 -33.202259 -5.470385 -0.415348 0.672355 0.674662 11.150930 -9.197841 -2.009300 -7.125000 0.000000 0.000000 -10.958700 20.003700 6.670600 0.188221 -5.736932 -2.629692 60.709284 -10.363169 2.817754 -112.833058 60.382310 -77.202623 1.302269 -0.843861 5.231537 -22.645151 -40.692006 15.814000 7.125000 0.000000 0.000000 17.728900 -71.274600 -11.207800 
-6.051889 16.402076 10.185073 179.830986 46.022446 -178.431718 -2.206040 0.382799 1.167225 -8.753462 -10.218217 8.312397 1.733020 10.100745 28.407490 2.827693 -3.528482 -25.794926 3.109900 -10.870800 -31.845400 2.351831 0.534295 -0.204908 9.161124 -14.656380 -43.753204 -4.423053 -12.768320 38.696910 5.071310 -30.976482 -10.300455 -4.699300 -13.037000 39.507000 -8.064235 0.341783 16.701265 -3.760469 -0.796225 2.405549 4.788866 -0.334746 -8.072331 -10.994393 -7.942939 -7.643569 16.635219 -10.190172 5.224834 4.453100 -4.610300 4.933800 2.328774 5.539107 -0.283144 -93.263017 1.475208 -11.063519 19.682935 -36.730903 -6.970303 -0.417770 0.785783 -4.089361 11.848460 -9.398783 -2.198000 -7.125000 0.000000 0.000000 -10.495000 19.620400 6.470100 0.176337 -5.702956 -2.559236 62.257236 -11.184161 6.758321 -106.095283 61.867725 -70.913048 1.360022 -0.934237 6.206702 -18.257657 -39.196175 12.447300 7.125000 0.000000 0.000000 21.167500 -68.570900 -12.173700 
-6.055761 16.497291 10.221909 179.162697 45.564105 -178.484664 -2.236505 0.380363 1.161370 -9.342750 -11.051617 8.533288 1.487533 9.686250 27.096442 2.666195 -3.433037 -24.856743 2.927100 -10.576100 -30.863300 2.332627 0.558395 -0.210969 8.815648 -15.232027 -43.101512 -3.958657 -12.214530 36.596232 4.986709 -30.992117 -9.120968 -4.681800 -13.016200 39.429300 -8.914061 0.212856 16.460185 -3.630150 -1.102228 2.149037 5.318503 -0.454581 -8.097712 -11.113470 -7.852774 -7.378862 16.777213 -10.137805 5.899974 4.523400 -4.548000 5.064600 2.241903 5.548436 -0.329458 -92.599216 2.044501 -6.950819 22.777461 -39.874360 -8.580349 -0.426820 0.874596 -8.337516 12.364593 -9.573164 -2.346700 -7.125000 0.000000 0.000000 -10.166000 19.302000 6.334100 0.175504 -5.666311 -2.474678 63.513233 -11.718630 10.120556 -97.240883 63.468240 -63.073668 1.314452 -0.983952 6.936614 -15.268924 -39.647975 10.582300 7.125000 0.000000 0.000000 25.391700 -68.076000 -14.430800 
-6.063506 16.591514 10.294487 178.466856 43.986882 -178.166815 -2.297272 0.359333 1.121321 -9.495116 -12.570878 7.929260 1.315940 9.394900 26.163033 2.535801 -3.530586 -23.807397 2.785300 -10.339200 -30.082200 2.363824 0.602842 -0.200424 8.387672 -16.468326 -42.989839 -3.527306 -11.687398 34.673557 5.007601 -31.367418 -8.400079 -4.525100 -12.828200 38.728600 -9.587562 -0.306124 16.698355 -3.482728 -1.962706 1.620457 5.898413 -0.810056 -8.543577 -11.191301 -7.806423 -7.262928 17.006862 -10.138895 6.555260 4.602200 -4.500900 5.213500 2.153397 5.570859 -0.375966 -91.468343 2.602394 -3.069310 25.733922 -42.591392 -10.245529 -0.441256 0.945494 -11.768513 13.167166 -8.266197 -2.206300 -7.125000 0.000000 0.000000 -9.679700 20.486500 5.761400 0.190592 -5.644782 -2.368818 64.705206 -12.002542 12.083306 -86.952433 64.620828 -54.557331 1.188936 -1.031905 9.828906 -9.016727 -38.893411 6.420200 7.125000 0.000000 0.000000 31.583300 -65.705900 -16.516700 
-6.055166 16.671935 10.320500 178.299252 43.324863 -177.506521 -2.315549 0.359290 1.109243 -9.416027 -13.322949 7.754467 1.068576 8.943112 24.768274 2.335431 -3.135684 -22.898674 2.661300 -10.125400 -29.383700 2.352164 0.613454 -0.196661 8.643724 -17.264084 -43.081655 -3.249608 -11.287565 33.267192 4.847792 -31.119041 -7.154622 -4.100300 -12.292700 36.775300 -9.556596 -0.605538 16.289493 -3.325016 -2.339800 1.267341 5.983775 -0.988152 -8.565338 -11.267393 -7.819761 -7.318922 17.202649 -10.185874 6.996704 4.655500 -4.485600 5.339100 2.060793 5.595142 -0.431992 -90.169871 2.906551 0.458605 28.661778 -45.027678 -12.020344 -0.463530 0.999799 -14.251751 14.914313 -5.215778 -1.706400 -7.125000 0.000000 0.000000 -8.561700 23.439600 4.498100 0.215643 -5.628467 -2.244294 65.894168 -12.158385 13.499555 -76.382596 64.614964 -46.345522 0.968258 -1.085374 11.753663 -5.911168 -37.848394 4.272000 7.125000 0.000000 0.000000 33.706200 -63.962400 -16.391000 
-6.032131 16.750967 10.283962 178.707421 44.021938 -177.273221 -2.258138 0.402408 1.171343 -9.555121 -13.109399 9.102116 0.748823 8.287278 22.812957 2.098486 -2.291313 -22.376610 2.515600 -9.866200 -28.544600 2.234145 0.616374 -0.244038 9.359718 -17.554376 -42.281770 -3.085317 -11.009920 32.226271 4.381364 -29.864284 -5.034611 -3.355500 -11.249400 33.125700 -8.911816 -0.475759 15.824395 -3.137060 -1.994185 1.369629 5.597535 -0.874252 -8.301448 -11.320295 -7.866656 -7.495828 17.342561 -10.242057 7.125156 4.679500 -4.493700 5.404500 1.975884 5.609454 -0.508533 -88.968737 2.989237 3.396319 31.719477 -47.285924 -13.799517 -0.459977 1.023940 -15.173387 12.992169 -10.606721 -2.725300 -7.125000 0.000000 0.000000 -9.774400 18.038000 6.360800 0.223009 -5.627526 -2.127432 67.006729 -12.109913 14.414549 -66.541970 63.435755 -38.876697 0.746058 -1.132613 11.873432 -5.229101 -36.811943 3.637500 7.125000 0.000000 0.000000 33.299900 -62.830100 -15.292700 
-6.025876 16.794752 10.296373 179.037731 43.909824 -176.490843 -2.242428 0.418202 1.180042 -9.121602 -13.360500 9.087718 0.581689 7.902361 21.650819 2.045068 -2.294643 -21.954593 2.463200 -9.770800 -28.237600 2.203901 0.601319 -0.239486 9.823221 -17.728882 -42.480979 -3.050087 -10.887358 31.834987 4.010143 -28.776799 -3.344438 -2.625000 -10.061800 29.177000 -8.354134 -0.613667 15.583522 -2.801916 -2.064058 1.200171 5.485546 -0.924137 -8.312881 -11.280448 -7.890075 -7.717863 17.353383 -10.242047 6.889251 4.657300 -4.502200 5.368800 1.906450 5.623495 -0.569296 -87.955198 2.930756 5.547457 34.878983 -49.378622 -15.792882 -0.459531 1.062344 -14.822611 12.104759 -11.435986 -2.718400 -7.125000 0.000000 0.000000 -10.371400 17.225100 6.950500 0.204650 -5.644921 -2.025400 67.996572 -11.911822 14.809587 -58.217229 61.580959 -32.607104 0.558010 -1.176343 10.696538 -5.841290 -36.480117 3.842000 7.125000 0.000000 0.000000 32.396400 -62.588100 -14.646500 
-6.024486 16.814808 10.310770 179.016786 43.951049 -176.062248 -2.244931 0.420337 1.177857 -8.937398 -13.376297 9.027563 0.448007 7.585887 20.705933 1.987856 -2.182351 -21.676402 2.540700 -9.911500 -28.690800 2.226944 0.597482 -0.222137 9.568579 -17.507539 -42.696670 -3.143536 -10.965419 32.156098 3.617755 -27.368339 -2.021973 -1.938700 -8.737200 24.976500 -7.936486 -0.687814 15.632344 -2.513460 -2.101544 0.992750 5.416456 -0.941250 -8.520656 -11.301643 -7.873203 -7.857280 17.355619 -10.174613 6.455747 4.650500 -4.496700 5.264100 1.852407 5.626084 -0.621515 -87.078322 2.905032 7.088748 38.167322 -51.319838 -17.956167 -0.453936 1.096054 -13.712546 11.073969 -11.651654 -2.532800 -7.125000 0.000000 0.000000 -11.068500 17.047800 7.479000 0.174365 -5.668497 -1.941646 68.856002 -11.786251 14.646446 -51.621034 59.526694 -27.691751 0.406640 -1.221977 9.263682 -6.618707 -36.677356 4.208800 7.125000 0.000000 0.000000 31.902600 -62.838500 -14.586100 
-6.024685 16.811929 10.327648 178.479428 44.249629 -175.944055 -2.277652 0.403801 1.155835 -9.084200 -13.135833 8.815232 0.347889 7.333745 19.954633 1.965274 -2.210332 -21.464864 2.602700 -10.022300 -29.049000 2.323369 0.598750 -0.180015 8.537132 -16.826152 -43.206115 -3.386323 -11.253272 33.266416 3.203255 -25.514654 -1.092310 -1.272200 -7.148700 20.156800 -7.781319 -0.645331 15.726731 -2.347002 -2.045708 0.714688 5.375454 -0.899370 -8.823165 -11.396585 -7.857241 -7.914035 17.405305 -10.104101 5.953232 4.670500 -4.496200 5.134100 1.813593 5.625337 -0.666192 -86.232435 2.843745 8.189947 41.231682 -52.933501 -20.040795 -0.440529 1.116233 -12.370403 9.903010 -11.699813 -2.275900 -7.125000 0.000000 0.000000 -11.862800 17.059500 8.036000 0.139119 -5.692958 -1.868289 69.664260 -11.693726 13.820877 -46.391368 57.479923 -23.863328 0.283355 -1.272074 7.893880 -7.249994 -37.050671 4.527600 7.125000 0.000000 0.000000 31.742400 -63.214000 -14.784100 
